<svg width="70" height="70" viewBox="0 0 70 70" fill="none" xmlns="http://www.w3.org/2000/svg">
<g clip-path="url(#clip0_1_3383)">
<path d="M35 69C53.7777 69 69 53.7777 69 35C69 16.2223 53.7777 1 35 1C16.2223 1 1 16.2223 1 35C1 53.7777 16.2223 69 35 69Z" fill="white" stroke="#252F3E" stroke-width="2"/>
<path d="M24.2229 32.9806C24.2229 33.5852 24.2882 34.0755 24.4026 34.435C24.5334 34.7945 24.6968 35.1867 24.9256 35.6116C25.0073 35.7423 25.04 35.8731 25.04 35.9875C25.04 36.1509 24.9419 36.3143 24.7295 36.4777L23.7 37.164C23.5529 37.2621 23.4058 37.3111 23.2751 37.3111C23.1117 37.3111 22.9482 37.2294 22.7848 37.0823C22.556 36.8372 22.3599 36.5757 22.1965 36.3143C22.0331 36.0365 21.8697 35.726 21.6899 35.3501C20.4153 36.8536 18.8138 37.6053 16.8855 37.6053C15.5128 37.6053 14.418 37.2131 13.6172 36.4287C12.8165 35.6443 12.408 34.5984 12.408 33.2911C12.408 31.9021 12.8982 30.7745 13.895 29.9247C14.8919 29.075 16.2155 28.6501 17.8987 28.6501C18.4543 28.6501 19.0263 28.6991 19.6309 28.7808C20.2355 28.8625 20.8565 28.9933 21.5102 29.1403V27.9474C21.5102 26.7055 21.2487 25.8394 20.7421 25.3328C20.2192 24.8262 19.3368 24.5811 18.0785 24.5811C17.5065 24.5811 16.9182 24.6464 16.3136 24.7935C15.7089 24.9406 15.1206 25.1203 14.5487 25.3491C14.2872 25.4635 14.0911 25.5289 13.9767 25.5615C13.8623 25.5942 13.7806 25.6106 13.7153 25.6106C13.4865 25.6106 13.3721 25.4472 13.3721 25.104V24.3033C13.3721 24.0418 13.4048 23.8457 13.4865 23.7313C13.5682 23.6169 13.7153 23.5025 13.9441 23.3881C14.516 23.094 15.2024 22.8489 16.0031 22.6528C16.8038 22.4403 17.6536 22.3423 18.5524 22.3423C20.497 22.3423 21.9187 22.7835 22.8339 23.6659C23.7326 24.5484 24.1902 25.8884 24.1902 27.6859V32.9806H24.2229ZM17.5882 35.4645C18.1275 35.4645 18.6831 35.3665 19.2714 35.1704C19.8597 34.9743 20.3826 34.6148 20.8238 34.1245C21.0853 33.814 21.2814 33.4709 21.3795 33.0787C21.4775 32.6865 21.5429 32.2126 21.5429 31.6569V30.9706C21.069 30.8562 20.5624 30.7582 20.0394 30.6928C19.5165 30.6274 19.0099 30.5947 18.5033 30.5947C17.4085 30.5947 16.6077 30.8072 16.0685 31.2484C15.5292 31.6896 15.2677 32.3106 15.2677 33.1277C15.2677 33.8957 15.4638 34.4677 15.8724 34.8599C16.2646 35.2684 16.8365 35.4645 17.5882 35.4645ZM30.7105 37.2294C30.4163 37.2294 30.2202 37.1804 30.0895 37.066C29.9588 36.9679 29.8444 36.7392 29.7463 36.4287L25.9061 23.7967C25.808 23.4698 25.759 23.2574 25.759 23.143C25.759 22.8815 25.8897 22.7345 26.1512 22.7345H27.7527C28.0631 22.7345 28.2756 22.7835 28.39 22.8979C28.5207 22.9959 28.6188 23.2247 28.7168 23.5352L31.4622 34.3533L34.0115 23.5352C34.0932 23.2084 34.1912 22.9959 34.322 22.8979C34.4527 22.7998 34.6815 22.7345 34.9756 22.7345H36.2829C36.5934 22.7345 36.8059 22.7835 36.9366 22.8979C37.0673 22.9959 37.1817 23.2247 37.2471 23.5352L39.8291 34.484L42.6561 23.5352C42.7542 23.2084 42.8686 22.9959 42.983 22.8979C43.1137 22.7998 43.3261 22.7345 43.6203 22.7345H45.1401C45.4015 22.7345 45.5486 22.8652 45.5486 23.143C45.5486 23.2247 45.5322 23.3064 45.5159 23.4045C45.4996 23.5025 45.4669 23.6332 45.4015 23.813L41.4632 36.445C41.3652 36.7718 41.2508 36.9843 41.12 37.0823C40.9893 37.1804 40.7769 37.2458 40.4991 37.2458H39.0937C38.7832 37.2458 38.5708 37.1967 38.44 37.0823C38.3093 36.9679 38.1949 36.7555 38.1295 36.4287L35.5966 25.8884L33.08 36.4123C32.9983 36.7392 32.9002 36.9516 32.7695 37.066C32.6388 37.1804 32.41 37.2294 32.1158 37.2294H30.7105ZM51.7093 37.6706C50.8596 37.6706 50.0098 37.5726 49.1928 37.3765C48.3757 37.1804 47.7384 36.9679 47.3135 36.7228C47.052 36.5757 46.8723 36.4123 46.8069 36.2653C46.7415 36.1182 46.7088 35.9548 46.7088 35.8077V34.9743C46.7088 34.6311 46.8396 34.4677 47.0847 34.4677C47.1827 34.4677 47.2808 34.484 47.3788 34.5167C47.4769 34.5494 47.624 34.6148 47.7874 34.6801C48.343 34.9253 48.9476 35.1214 49.585 35.2521C50.2386 35.3828 50.8759 35.4482 51.5296 35.4482C52.5591 35.4482 53.3598 35.2684 53.9155 34.9089C54.4711 34.5494 54.7652 34.0265 54.7652 33.3565C54.7652 32.8989 54.6181 32.523 54.324 32.2126C54.0298 31.9021 53.4742 31.6243 52.6735 31.3628L50.304 30.6274C49.111 30.2516 48.2286 29.696 47.6893 28.9606C47.1501 28.2416 46.8723 27.4408 46.8723 26.5911C46.8723 25.9047 47.0193 25.3001 47.3135 24.7772C47.6076 24.2542 47.9998 23.7967 48.4901 23.4371C48.9803 23.0613 49.5359 22.7835 50.1896 22.5874C50.8432 22.3913 51.5296 22.3096 52.2486 22.3096C52.6081 22.3096 52.984 22.3259 53.3435 22.3749C53.7194 22.424 54.0625 22.4893 54.4057 22.5547C54.7325 22.6364 55.043 22.7181 55.3372 22.8162C55.6313 22.9142 55.8601 23.0123 56.0235 23.1103C56.2523 23.241 56.4157 23.3718 56.5138 23.5189C56.6118 23.6496 56.6608 23.8293 56.6608 24.0581V24.8262C56.6608 25.1694 56.5301 25.3491 56.285 25.3491C56.1543 25.3491 55.9418 25.2837 55.664 25.153C54.7325 24.7281 53.6867 24.5157 52.5264 24.5157C51.595 24.5157 50.8596 24.6628 50.353 24.9733C49.8464 25.2837 49.585 25.7576 49.585 26.4277C49.585 26.8852 49.7484 27.2774 50.0752 27.5879C50.402 27.8984 51.0067 28.2089 51.8728 28.4867L54.1933 29.2221C55.3699 29.5979 56.2196 30.1208 56.7262 30.7908C57.2328 31.4608 57.4779 32.2289 57.4779 33.0787C57.4779 33.7813 57.3308 34.4187 57.053 34.9743C56.7589 35.5299 56.3667 36.0201 55.8601 36.4123C55.3535 36.8209 54.7489 37.115 54.0462 37.3275C53.3108 37.5562 52.5428 37.6706 51.7093 37.6706Z" fill="#252F3E"/>
<path fill-rule="evenodd" clip-rule="evenodd" d="M54.7975 45.6126C49.4212 49.5836 41.61 51.6917 34.8936 51.6917C25.4809 51.6917 16.9997 48.211 10.5939 42.426C10.0873 41.9685 10.5448 41.3475 11.1495 41.707C18.0782 45.727 26.6248 48.1619 35.4656 48.1619C41.4302 48.1619 47.9831 46.92 54.0131 44.3707C54.9119 43.9621 55.68 44.959 54.7975 45.6126Z" fill="#FF9900"/>
<path fill-rule="evenodd" clip-rule="evenodd" d="M57.0365 43.0631C56.3501 42.1806 52.4936 42.6382 50.7452 42.8506C50.2222 42.916 50.1405 42.4584 50.6144 42.1153C53.6865 39.9582 58.7359 40.5792 59.3242 41.2982C59.9125 42.0335 59.1608 47.0831 56.2848 49.5016C55.8436 49.8775 55.4187 49.6814 55.6148 49.1911C56.2684 47.5733 57.7228 43.9292 57.0365 43.0631Z" fill="#FF9900"/>
</g>
<defs>
<clipPath id="clip0_1_3383">
<rect width="70" height="70" fill="white"/>
</clipPath>
</defs>
</svg>
