<svg width="70" height="70" viewBox="0 0 70 70" fill="none" xmlns="http://www.w3.org/2000/svg">
<g clip-path="url(#clip0_1_3395)">
<path d="M35 69C53.7777 69 69 53.7777 69 35C69 16.2223 53.7777 1 35 1C16.2223 1 1 16.2223 1 35C1 53.7777 16.2223 69 35 69Z" fill="white" stroke="#019BC6" stroke-width="2"/>
<path d="M65.5001 31.4219C63.4845 30.25 60.8126 30.1094 58.5626 30.7656C58.2813 28.3281 56.6876 26.2187 54.8126 24.7187L54.0626 24.1094L53.4063 24.8594C52.1407 26.3125 51.7657 28.75 51.9532 30.625C52.0938 31.9844 52.5157 33.3906 53.3595 34.5156C52.7032 34.8906 52.0001 35.4062 51.3438 35.6406C50.0313 36.1094 48.5782 36.5781 47.172 36.5781H44.0313V29.9688H37.9376V18.25H30.9063V23.875H19.1876V29.9688H13.0938V36.5312H7.84381L7.75006 37.2344C7.51568 40.2344 7.89068 43.1406 9.15631 45.9062L9.67193 46.9375L9.71881 47.0312C13.422 53.3125 19.8907 55.9375 26.9688 55.9375C40.6563 55.9375 51.9532 49.7969 57.1095 36.9062C60.5782 37.0938 64.1407 36.0625 65.8282 32.7344L66.2501 31.8906L65.5001 31.4219ZM20.1251 25.2812H24.8126V30.4375H20.1251V25.2812ZM26.2657 46C26.2657 46.7969 25.6095 47.4531 24.8126 47.4531C24.0157 47.4531 23.3595 46.7969 23.3595 46C23.3595 45.2031 24.0157 44.5469 24.8126 44.5469C25.6095 44.5938 26.2657 45.2031 26.2657 46ZM20.1251 31.375H24.8126V36.5312H20.1251V31.375ZM14.0313 31.375H19.1876V36.5312H14.0313V31.375ZM27.0157 54.9062C19.6095 54.8594 15.6251 52.375 12.3438 49.0938C13.3282 49.1406 14.2657 49.1875 15.1095 49.1875C15.8595 49.1875 16.6095 49.1875 17.3126 49.1406C19.1407 49.0469 20.7345 48.8125 22.047 48.4375C23.1251 50.9219 25.0938 53.2188 28.6095 54.9062H27.0157ZM30.9063 36.5312H25.7501V31.375H30.9063V36.5312ZM30.9063 30.4375H25.7501V25.2812H30.9063V30.4375ZM37.0001 36.5312H31.8438V31.375H37.0001V36.5312ZM37.0001 30.4375H31.8438V25.2812H37.0001V30.4375ZM37.0001 24.3438H31.8438V19.1875H37.0001V24.3438ZM43.0938 36.5312H37.9376V31.375H43.0938V36.5312ZM25.1876 45.0625C25.0938 45.0156 24.9532 44.9688 24.8126 44.9688C24.2501 44.9688 23.7813 45.4375 23.7813 46C23.7813 46.5625 24.2501 47.0312 24.8126 47.0312C25.3751 47.0312 25.8438 46.5625 25.8438 46C25.8438 45.8594 25.797 45.7188 25.7501 45.625C25.6563 45.7656 25.5626 45.8594 25.3751 45.8594C25.1407 45.8594 24.9532 45.6719 24.9532 45.4375C25.0001 45.25 25.0938 45.1094 25.1876 45.0625Z" fill="#019BC6"/>
</g>
<defs>
<clipPath id="clip0_1_3395">
<rect width="70" height="70" fill="white"/>
</clipPath>
</defs>
</svg>
