<svg width="70" height="70" viewBox="0 0 70 70" fill="none" xmlns="http://www.w3.org/2000/svg">
<g clip-path="url(#clip0_1_3411)">
<path d="M35 69C53.7777 69 69 53.7777 69 35C69 16.2223 53.7777 1 35 1C16.2223 1 1 16.2223 1 35C1 53.7777 16.2223 69 35 69Z" fill="white" stroke="#F34F29" stroke-width="2"/>
<path d="M58.7272 32.8045L37.1972 11.2756C35.9581 10.0358 33.9472 10.0358 32.7062 11.2756L28.2362 15.7467L33.9073 21.4178C35.2257 20.9729 36.7366 21.2713 37.787 22.3217C38.2876 22.8227 38.6371 23.4545 38.7955 24.1448C38.9539 24.8351 38.9148 25.5561 38.6827 26.2252L44.1483 31.6916C45.4706 31.2358 46.9968 31.5303 48.0522 32.5881C49.5288 34.0635 49.5288 36.4553 48.0522 37.9315C47.7014 38.2825 47.2847 38.561 46.8262 38.751C46.3676 38.941 45.8761 39.0388 45.3798 39.0388C44.8834 39.0388 44.3919 38.941 43.9334 38.751C43.4748 38.561 43.0582 38.2825 42.7073 37.9315C42.1801 37.4039 41.8208 36.7323 41.6745 36.001C41.5281 35.2697 41.6014 34.5114 41.8851 33.8217L36.7882 28.7244L36.7874 42.1389C37.1572 42.321 37.4948 42.5622 37.787 42.8529C39.2632 44.3283 39.2632 46.7193 37.787 48.1979C36.3108 49.6733 33.9183 49.6733 32.4437 48.1979C30.9679 46.7197 30.8468 44.3287 32.3222 42.8529C32.687 42.4885 33.0468 42.2131 33.4374 42.0287V28.4901C33.0468 28.3057 32.6874 28.0322 32.3218 27.6654C31.2042 26.5483 30.9952 24.9076 31.5687 23.5342L26.0089 17.9432L11.2612 32.7049C10.021 33.9459 10.0288 35.9568 11.269 37.1971L32.8026 58.726C34.0421 59.9658 36.0546 59.9658 37.296 58.726L58.7257 37.2971C59.9659 36.0565 59.9671 34.0443 58.7272 32.8045Z" fill="#F34F29"/>
</g>
<defs>
<clipPath id="clip0_1_3411">
<rect width="70" height="70" fill="white"/>
</clipPath>
</defs>
</svg>
