<svg width="70" height="70" viewBox="0 0 70 70" fill="none" xmlns="http://www.w3.org/2000/svg">
<g clip-path="url(#clip0_1_3421)">
<path d="M17.0058 47.6809L15.1909 46.6327L35.4103 11.6143L37.224 12.6621L17.0058 47.6809Z" fill="#E434AA"/>
<path d="M14.7744 43.835H55.2116V45.9299H14.7744V43.835Z" fill="#E434AA"/>
<path d="M35.8012 56.6896L15.5759 45.0125L16.6237 43.1969L36.8495 54.8756L35.8012 56.6896ZM53.3714 26.254L33.146 14.5753L34.1939 12.7617L54.4196 24.4384L53.3714 26.254Z" fill="#E434AA"/>
<path d="M16.6285 26.2453L15.5803 24.4301L35.8076 12.7529L36.8554 14.5669L16.6285 26.2453Z" fill="#E434AA"/>
<path d="M52.9985 47.6809L32.7807 12.6621L34.5948 11.6143L54.8142 46.6327L52.9985 47.6809ZM16.3784 23.0413H18.4745V46.3987H16.3788L16.3784 23.0413Z" fill="#E434AA"/>
<path d="M51.5256 23.04H53.6213V46.3975H51.5256V23.04Z" fill="#E434AA"/>
<path d="M35.4455 55.8036L34.5303 54.2176L52.1205 44.0605L53.0358 45.6465L35.4455 55.8036Z" fill="#E434AA"/>
<path d="M56.3983 47.079C55.1871 49.1874 52.4854 49.907 50.3775 48.6958C48.2691 47.483 47.5495 44.7813 48.7607 42.673C49.9735 40.5646 52.6752 39.845 54.7835 41.0566C56.9041 42.2816 57.6237 44.9707 56.3983 47.079ZM21.2272 26.7657C20.0145 28.8741 17.3128 29.5937 15.2044 28.3821C13.0961 27.1693 12.3765 24.468 13.588 22.3597C14.8008 20.2513 17.5021 19.5317 19.6105 20.7429C21.7188 21.9683 22.4384 24.6574 21.2272 26.7657ZM13.6019 47.079C12.3887 44.9707 13.1087 42.2816 15.2166 41.0562C17.325 39.845 20.0141 40.5646 21.2395 42.673C22.4507 44.7813 21.731 47.4704 19.6227 48.6958C17.5021 49.907 14.813 49.1874 13.6019 47.079ZM48.7729 26.7657C47.5618 24.6574 48.2814 21.9683 50.3897 20.7429C52.4981 19.5317 55.1871 20.2513 56.4121 22.3597C57.6233 24.468 56.9041 27.1571 54.7958 28.3825C52.6874 29.5937 49.9857 28.8741 48.7729 26.7657ZM35.0001 59.4387C34.4213 59.4392 33.8482 59.3256 33.3134 59.1043C32.7785 58.8831 32.2926 58.5586 31.8834 58.1493C31.4741 57.7401 31.1496 57.2542 30.9284 56.7194C30.7071 56.1846 30.5935 55.6114 30.594 55.0326C30.5935 54.4539 30.7071 53.8807 30.9284 53.3459C31.1496 52.8111 31.4741 52.3252 31.8834 51.9159C32.2926 51.5067 32.7785 51.1822 33.3134 50.9609C33.8482 50.7397 34.4213 50.6261 35.0001 50.6266C35.5788 50.6261 36.152 50.7397 36.6868 50.9609C37.2216 51.1822 37.7076 51.5067 38.1168 51.9159C38.526 52.3252 38.8506 52.8111 39.0718 53.3459C39.293 53.8807 39.4067 54.4539 39.4061 55.0326C39.4061 57.457 37.4367 59.4387 35.0001 59.4387ZM35.0001 18.8121C34.4213 18.8126 33.8482 18.699 33.3134 18.4778C32.7785 18.2565 32.2926 17.932 31.8834 17.5228C31.4741 17.1135 31.1496 16.6276 30.9284 16.0928C30.7071 15.558 30.5935 14.9848 30.594 14.4061C30.5935 13.8273 30.7071 13.2541 30.9284 12.7193C31.1496 12.1845 31.4741 11.6986 31.8834 11.2893C32.2926 10.8801 32.7785 10.5556 33.3134 10.3343C33.8482 10.1131 34.4213 9.99948 35.0001 10C35.5788 9.99948 36.152 10.1131 36.6868 10.3343C37.2216 10.5556 37.7076 10.8801 38.1168 11.2893C38.526 11.6986 38.8506 12.1845 39.0718 12.7193C39.293 13.2541 39.4067 13.8273 39.4061 14.4061C39.4067 14.9848 39.293 15.558 39.0718 16.0928C38.8506 16.6276 38.526 17.1135 38.1168 17.5228C37.7076 17.932 37.2216 18.2565 36.6868 18.4778C36.152 18.699 35.5788 18.8126 35.0001 18.8121Z" fill="#E434AA"/>
<path d="M35 69C53.7777 69 69 53.7777 69 35C69 16.2223 53.7777 1 35 1C16.2223 1 1 16.2223 1 35C1 53.7777 16.2223 69 35 69Z" stroke="#E434AA" stroke-width="2"/>
</g>
<defs>
<clipPath id="clip0_1_3421">
<rect width="70" height="70" fill="white"/>
</clipPath>
</defs>
</svg>
