<svg width="70" height="70" viewBox="0 0 70 70" fill="none" xmlns="http://www.w3.org/2000/svg">
<g clip-path="url(#clip0_1_3456)">
<path d="M35 69C53.7777 69 69 53.7777 69 35C69 16.2223 53.7777 1 35 1C16.2223 1 1 16.2223 1 35C1 53.7777 16.2223 69 35 69Z" fill="white" stroke="#486BB3" stroke-width="2"/>
<path d="M31.9467 30.3836C32.097 30.4933 32.2798 30.5583 32.4789 30.5583C32.9664 30.5583 33.3645 30.1724 33.3848 29.693L33.4052 29.6808L33.7098 24.2939C33.3442 24.3386 32.9786 24.3996 32.613 24.4808C30.6102 24.9358 28.8755 25.923 27.5186 27.2555L31.9345 30.3877L31.9467 30.3836ZM31.3577 38.2771C31.3062 38.049 31.168 37.8499 30.9725 37.7218C30.7769 37.5937 30.5392 37.5466 30.3095 37.5905L30.3014 37.5783L24.9998 38.4761C25.7953 40.6788 27.2964 42.5569 29.2695 43.8183L31.3252 38.8539L31.3089 38.8336C31.378 38.663 31.4023 38.4721 31.3577 38.2771ZM29.5945 34.4543C29.7733 34.4055 29.9398 34.2999 30.0658 34.1455C30.3705 33.7636 30.3177 33.2152 29.952 32.8983L29.9561 32.878L25.922 29.2705C24.6919 31.2735 24.1631 33.6289 24.4189 35.9655L29.5905 34.4746L29.5945 34.4543ZM33.5108 36.0386L34.9977 36.7536L36.4845 36.0427L36.8502 34.438L35.8223 33.1543H34.173L33.1411 34.438L33.5108 36.0386ZM36.5983 29.6727C36.6064 29.8596 36.6714 30.0424 36.7973 30.1968C37.102 30.5786 37.6505 30.6477 38.0405 30.3633L38.0567 30.3714L42.4442 27.2596C40.7867 25.6386 38.6255 24.5783 36.2895 24.2939L36.5942 29.6727H36.5983ZM39.6777 37.5661C39.6086 37.5539 39.5395 37.5458 39.4705 37.5499C39.3527 37.5539 39.2348 37.5864 39.1252 37.6393C38.9148 37.7407 38.7517 37.9194 38.67 38.1382C38.5882 38.3569 38.5941 38.5988 38.6864 38.8133L38.6783 38.8214L40.7542 43.8346C42.757 42.5589 44.252 40.6536 45.0361 38.4558L39.6898 37.5499L39.6777 37.5661ZM35.7939 40.223C35.7132 40.0749 35.593 39.9521 35.4467 39.8682C35.3004 39.7843 35.1337 39.7426 34.9652 39.7477C34.6523 39.7599 34.3558 39.9346 34.1973 40.2271H34.1933L31.5852 44.9396C33.4526 45.5745 35.4599 45.6772 37.3823 45.2361C37.7398 45.1549 38.0892 45.0574 38.4264 44.9436L35.8142 40.2189H35.7939V40.223Z" fill="#486BB3"/>
<path d="M59.596 39.1952L55.3548 20.7799C55.2441 20.3022 55.027 19.8557 54.7196 19.4738C54.4121 19.0918 54.0224 18.7842 53.5795 18.574L36.4195 10.3758C35.9231 10.1398 35.3759 10.0309 34.827 10.059C34.3904 10.0804 33.9623 10.1881 33.5676 10.3758L16.4076 18.574C15.9654 18.7852 15.5762 19.0932 15.269 19.475C14.9617 19.8568 14.7441 20.3027 14.6323 20.7799L10.4032 39.1993C10.305 39.6236 10.2939 40.0635 10.3707 40.4923C10.4476 40.9211 10.6106 41.3298 10.8501 41.6937C10.907 41.783 10.972 41.8683 11.037 41.9537L22.9157 56.7208C23.2247 57.104 23.6159 57.4128 24.0603 57.6244C24.5047 57.8361 24.991 57.9452 25.4832 57.9437L44.5323 57.9396C45.5316 57.9396 46.4741 57.4887 47.0998 56.7168L58.9745 41.9455C59.2785 41.5635 59.4922 41.1177 59.5999 40.6415C59.7075 40.1653 59.7062 39.6709 59.596 39.1952ZM53.0676 38.9718C52.9416 39.5202 52.3526 39.8533 51.7432 39.7233C51.7391 39.7233 51.731 39.7233 51.727 39.7193C51.7188 39.7193 51.7148 39.7152 51.7066 39.7112C51.6213 39.6908 51.5157 39.6746 51.4426 39.6543C51.0932 39.5608 50.8373 39.4187 50.5204 39.2968C49.842 39.053 49.2773 38.8499 48.7288 38.7687C48.4485 38.7483 48.3063 38.8783 48.152 38.9799C48.0788 38.9637 47.8473 38.923 47.7132 38.9027C46.7301 41.9943 44.6338 44.6755 41.7941 46.3493C41.8429 46.4671 41.9282 46.719 41.9648 46.7637C41.8998 46.9383 41.8023 47.1008 41.8876 47.369C42.0866 47.8849 42.4076 48.3927 42.7976 48.998C42.9845 49.2783 43.1795 49.4937 43.3501 49.8187C43.3907 49.8958 43.4435 50.0137 43.4841 50.0949C43.7482 50.6596 43.5532 51.3096 43.0454 51.5533C42.5335 51.8012 41.8998 51.5412 41.6235 50.9724C41.5829 50.8912 41.5301 50.7855 41.4976 50.7083C41.3513 50.3752 41.3026 50.0908 41.201 49.7658C40.9695 49.0833 40.7745 48.5187 40.4982 48.0393C40.3398 47.8077 40.1488 47.7793 39.9741 47.7224C39.9416 47.6655 39.8198 47.4421 39.7548 47.3283C39.186 47.5437 38.601 47.7224 37.9916 47.8605C35.3266 48.4658 32.6576 48.2221 30.277 47.304L30.0454 47.7265C29.8707 47.7712 29.7041 47.8199 29.6026 47.9418C29.2288 48.3887 29.0785 49.1037 28.8063 49.7862C28.7048 50.1071 28.656 50.3955 28.5098 50.7287C28.4773 50.8058 28.4204 50.9115 28.3838 50.9887V50.9927L28.3798 50.9968C28.1076 51.5615 27.4738 51.8215 26.962 51.5777C26.4541 51.334 26.2632 50.684 26.5232 50.1193C26.5638 50.038 26.6126 49.9202 26.6532 49.843C26.8238 49.5221 27.0148 49.3027 27.2057 49.0224C27.5957 48.413 27.937 47.8687 28.136 47.3527C28.1848 47.1821 28.1116 46.9465 28.0466 46.7718L28.2335 46.3249C25.4995 44.704 23.3423 42.1243 22.3104 38.9271L21.8635 39.0043C21.7416 38.9352 21.502 38.7768 21.2745 38.7971C20.726 38.8783 20.1613 39.0815 19.4829 39.3252C19.166 39.4471 18.9141 39.5852 18.5607 39.6787C18.4876 39.699 18.382 39.7193 18.2966 39.7396C18.2885 39.7396 18.2845 39.7437 18.2763 39.7477C18.2723 39.7477 18.2641 39.7477 18.2601 39.7518C17.6507 39.8818 17.0616 39.5487 16.9357 39.0002C16.8098 38.4518 17.1998 37.8952 17.8051 37.749C17.8091 37.749 17.8173 37.7449 17.8213 37.7449C17.8254 37.7449 17.8254 37.7449 17.8295 37.7408C17.9148 37.7205 18.0245 37.6921 18.1057 37.6758C18.4632 37.6068 18.7557 37.623 19.0929 37.5987C19.812 37.5215 20.4051 37.4605 20.9332 37.294C21.0998 37.2249 21.2623 36.9933 21.376 36.8471L21.8066 36.7212C21.3232 33.3818 22.1398 30.1074 23.9029 27.4546L23.5738 27.1621C23.5535 27.0321 23.5251 26.7396 23.3666 26.569C22.9645 26.1912 22.4526 25.8743 21.8391 25.4965C21.5466 25.3258 21.2785 25.2162 20.986 24.9968C20.9251 24.9521 20.8398 24.879 20.7748 24.8262C20.7707 24.8221 20.7626 24.818 20.7585 24.814C20.267 24.4199 20.1532 23.7415 20.5066 23.2987C20.7057 23.0508 21.0104 22.9249 21.3232 22.9371C21.567 22.9452 21.8229 23.0346 22.0382 23.2052C22.1073 23.2621 22.2048 23.3352 22.2657 23.388C22.542 23.6237 22.7085 23.8593 22.9401 24.1071C23.4479 24.623 23.8663 25.0496 24.3254 25.3583C24.5651 25.5005 24.752 25.4437 24.9348 25.4193C24.9957 25.464 25.1907 25.6062 25.3045 25.6833C27.0513 23.8268 29.3507 22.4537 32.0157 21.8483C32.6373 21.7062 33.2548 21.6127 33.8723 21.564L33.8966 21.1293C34.0348 20.9952 34.1851 20.8083 34.2298 20.5971C34.2745 20.0446 34.2013 19.4515 34.116 18.7324C34.0673 18.3993 33.9901 18.119 33.9738 17.7574C33.9698 17.6843 33.9738 17.5787 33.9779 17.4933C33.9779 17.4852 33.9738 17.473 33.9738 17.4649C33.9738 16.8352 34.4329 16.3233 35.0016 16.3233C35.5704 16.3233 36.0295 16.8352 36.0295 17.4649C36.0295 17.5543 36.0335 17.6762 36.0335 17.7574C36.0213 18.119 35.9401 18.3993 35.8913 18.7324C35.806 19.4474 35.7288 20.0446 35.7735 20.5971C35.8141 20.8733 35.9766 20.983 36.1107 21.109C36.1148 21.1821 36.127 21.4299 36.1351 21.568C39.4013 21.8565 42.432 23.3515 44.6623 25.6874L45.0523 25.4071C45.1863 25.4152 45.4748 25.4558 45.6738 25.338C46.1329 25.0293 46.5513 24.5987 47.0591 24.0868C47.2907 23.839 47.4613 23.6074 47.7376 23.3677C47.7985 23.3149 47.896 23.2418 47.9651 23.1849C48.4566 22.7908 49.1432 22.8355 49.4966 23.2783C49.8501 23.7212 49.7363 24.3996 49.2448 24.7937C49.1757 24.8505 49.0863 24.9277 49.0173 24.9765C48.7248 25.1918 48.4566 25.3015 48.1641 25.4762C47.5507 25.854 47.0388 26.1708 46.6366 26.5487C46.4457 26.7518 46.462 26.9468 46.4416 27.1296C46.3848 27.1824 46.1857 27.3612 46.076 27.4546C46.9849 28.807 47.6376 30.3148 48.0016 31.903C48.3754 33.524 48.4323 35.1408 48.217 36.6968L48.6313 36.8187C48.7045 36.9243 48.8588 37.1802 49.0741 37.2655C49.6023 37.4321 50.1954 37.493 50.9145 37.5702C51.2516 37.5987 51.5441 37.5824 51.9016 37.6474C51.9869 37.6637 52.1129 37.6962 52.1982 37.7165C52.8076 37.8668 53.1935 38.4233 53.0676 38.9718Z" fill="#486BB3"/>
<path d="M44.0487 29.2705L40.035 32.8618L40.039 32.8739C39.9009 32.9958 39.7953 33.1583 39.7506 33.3533C39.6409 33.8286 39.9294 34.2999 40.3925 34.4299L40.3965 34.4502L45.5925 35.9452C45.7022 34.8239 45.6372 33.6621 45.369 32.5002C45.1009 31.3261 44.65 30.2414 44.0487 29.2705Z" fill="#486BB3"/>
</g>
<defs>
<clipPath id="clip0_1_3456">
<rect width="70" height="70" fill="white"/>
</clipPath>
</defs>
</svg>
