<svg width="70" height="70" viewBox="0 0 70 70" fill="none" xmlns="http://www.w3.org/2000/svg">
<g clip-path="url(#clip0_1_3461)">
<path d="M35 69C53.7777 69 69 53.7777 69 35C69 16.2223 53.7777 1 35 1C16.2223 1 1 16.2223 1 35C1 53.7777 16.2223 69 35 69Z" stroke="#409433" stroke-width="2"/>
<path fill-rule="evenodd" clip-rule="evenodd" d="M45.5243 25.4258C46.2271 27.4586 46.7332 29.5339 46.8996 31.685C47.1062 34.3535 47.0116 37.0033 46.449 39.628C46.4337 39.7003 46.4013 39.7681 46.3772 39.8382C46.2008 39.8386 46.0208 39.8167 45.8483 39.8434C44.3908 40.0724 42.9346 40.3097 41.4784 40.5457C39.9731 40.7896 38.4657 41.0238 36.9631 41.2843C36.4307 41.3763 35.7718 41.2664 35.5568 42.0028C35.5507 42.0229 35.4894 42.0264 35.4539 42.0378L35.5266 37.6372L35.4526 27.019L36.154 26.8986C37.3011 26.7108 38.4482 26.5204 39.5962 26.3378C40.9661 26.1202 42.3374 25.9087 43.7082 25.6964C44.3129 25.6022 44.9184 25.516 45.5243 25.4258Z" fill="#439934"/>
<path fill-rule="evenodd" clip-rule="evenodd" d="M34.0056 54.8659C33.2657 54.2297 32.5 53.6216 31.7907 52.9526C27.9741 49.3528 25.1826 45.1159 23.8078 40.0078C23.4291 38.6019 23.1764 37.1733 23.0954 35.7206C23.0385 34.704 22.9562 33.6781 23.028 32.6668C23.2193 29.9767 23.6081 27.3126 24.3971 24.7215L24.4404 24.6611C24.5171 24.7631 24.6274 24.8533 24.6664 24.9684C25.4365 27.2364 26.2009 29.5061 26.9614 31.7771C29.3511 38.9137 31.7377 46.052 34.1313 53.1868C34.1781 53.3261 34.2994 53.4403 34.3866 53.566L34.0056 54.8659Z" fill="#45A538"/>
<path fill-rule="evenodd" clip-rule="evenodd" d="M45.5243 25.4255C44.9183 25.5157 44.3124 25.6019 43.7077 25.6952C42.3369 25.9075 40.9656 26.119 39.5957 26.3366C38.4477 26.5192 37.3006 26.7096 36.1535 26.8975L35.4521 27.0179L35.4468 26.5603C35.4236 26.1842 35.3838 25.8086 35.3794 25.4325C35.3492 23.0341 35.3303 20.6357 35.3006 18.2373C35.2822 16.7359 35.2546 15.2351 35.2239 13.7342C35.2051 12.8016 35.185 11.8686 35.143 10.9374C35.1202 10.4369 35.0396 9.93917 35.0068 9.43873C34.9884 9.15108 35.0138 8.86124 35.0195 8.57227C35.3772 9.26535 35.727 9.96369 36.0948 10.6515C36.6758 11.739 37.6013 12.5402 38.4345 13.4146C41.7283 16.8699 44.0667 20.8874 45.5243 25.4255Z" fill="#46A037"/>
<path fill-rule="evenodd" clip-rule="evenodd" d="M35.4536 42.037C35.489 42.0256 35.5507 42.0221 35.5564 42.0019C35.7714 41.2655 36.4303 41.3754 36.9627 41.2835C38.4654 41.0234 39.9728 40.7887 41.478 40.5449C42.9343 40.3089 44.3905 40.0716 45.848 39.8426C46.0205 39.8154 46.2005 39.8378 46.3769 39.8373C46.1046 40.8093 45.89 41.8023 45.5446 42.7476C45.1523 43.8198 44.6777 44.8662 44.1738 45.892C43.4193 47.4221 42.4856 48.857 41.3922 50.1665C40.552 51.177 39.6155 52.1109 38.6768 53.0334C38.158 53.5435 37.5464 53.959 36.9772 54.4174L36.8296 54.3167L36.2981 53.8622L35.7482 52.6569C35.3726 51.2508 35.1677 49.8046 35.1379 48.3496L35.1479 48.1039L35.2228 47.0418C35.2478 46.6792 35.281 46.3172 35.2964 45.9538C35.3529 44.6482 35.4019 43.3426 35.4536 42.037Z" fill="#409433"/>
<path fill-rule="evenodd" clip-rule="evenodd" d="M35.4536 42.0373C35.4019 43.3429 35.3529 44.6485 35.2973 45.9546C35.2819 46.3179 35.2487 46.68 35.2237 47.0426L34.8888 47.1691C34.1449 44.9791 33.4006 42.8123 32.6725 40.6398C31.4685 37.0456 30.2789 33.4458 29.0766 29.8508C28.1056 26.9491 27.1278 24.0497 26.1432 21.1525C26.0972 21.0168 25.965 20.9108 25.873 20.7909L28.0166 16.8496C28.0902 16.9774 28.1874 17.0969 28.2338 17.2344C29.2266 20.1688 30.2143 23.1049 31.197 26.0426C32.4737 29.8648 33.7425 33.6901 35.0184 37.5128C35.0692 37.6656 35.1532 37.8066 35.2333 37.9778L35.5267 37.6363L35.4536 42.0373Z" fill="#4FAA41"/>
<path fill-rule="evenodd" clip-rule="evenodd" d="M25.8734 20.791C25.9654 20.9109 26.0972 21.0169 26.1436 21.1526C27.1281 24.0498 28.106 26.9492 29.077 29.8509C30.2793 33.4459 31.4689 37.0457 32.6729 40.6398C33.4005 42.8119 34.1449 44.9791 34.8892 47.1692L35.2241 47.0426L35.1492 48.1048L35.0814 48.3495C34.9649 49.5124 34.8668 50.6779 34.725 51.8381C34.6536 52.4196 34.5021 52.9905 34.387 53.5662C34.3003 53.4406 34.1786 53.3263 34.1317 53.1871C31.7381 46.0518 29.3515 38.9139 26.9619 31.7773C26.2016 29.5062 25.4366 27.2366 24.6668 24.9687C24.6278 24.8536 24.5179 24.7634 24.4409 24.6613L25.8734 20.791Z" fill="#4AA73C"/>
<path fill-rule="evenodd" clip-rule="evenodd" d="M35.5261 37.6364L35.2328 37.9779C35.1527 37.8067 35.0686 37.6652 35.0178 37.5129C33.7424 33.6902 32.4732 29.8649 31.1964 26.0427C30.2138 23.1049 29.226 20.1689 28.2332 17.2345C28.1873 17.097 28.0901 16.977 28.0161 16.8496L30.6671 13.3623C30.7507 13.474 30.8698 13.5734 30.9132 13.699C31.6492 15.8536 32.3786 18.0108 33.1036 20.1692C33.7809 22.185 34.4482 24.2038 35.1334 26.2169C35.1794 26.3518 35.3392 26.4472 35.446 26.5611L35.4513 27.0186C35.4766 30.5571 35.5016 34.097 35.5261 37.6364Z" fill="#57AE47"/>
<path fill-rule="evenodd" clip-rule="evenodd" d="M35.4469 26.5604C35.3401 26.4465 35.1803 26.3511 35.1343 26.2162C34.4491 24.2031 33.7819 22.1843 33.1045 20.1685C32.3795 18.01 31.6501 15.8533 30.9141 13.6983C30.8707 13.5727 30.7517 13.4733 30.668 13.3616C31.5301 12.5175 32.3655 11.6432 33.2622 10.838C34.0594 10.1226 34.7004 9.35551 34.7298 8.22504C34.7311 8.1782 34.7556 8.13135 34.7932 8L35.0205 8.5718C35.0148 8.86121 34.9889 9.15061 35.0078 9.43826C35.0406 9.9387 35.1212 10.4365 35.1439 10.9369C35.186 11.8682 35.2061 12.8012 35.2249 13.7338C35.2551 15.2347 35.2827 16.7355 35.3016 18.2368C35.3309 20.6352 35.3502 23.0337 35.3804 25.4321C35.3839 25.809 35.4233 26.1843 35.4469 26.5604Z" fill="#60B24F"/>
<path fill-rule="evenodd" clip-rule="evenodd" d="M34.386 53.5658C34.5011 52.9901 34.6526 52.4187 34.724 51.8377C34.8663 50.6779 34.9639 49.512 35.0804 48.3491L35.1093 48.3447L35.1382 48.3495C35.168 49.8046 35.3729 51.2508 35.7485 52.6569C35.6715 52.7585 35.5624 52.8491 35.5217 52.9638C35.2034 53.8613 34.9035 54.7659 34.5835 55.6634C34.5397 55.786 34.418 55.8815 34.3321 55.9892L34.0051 54.8657L34.386 53.5658Z" fill="#A9AA88"/>
<path fill-rule="evenodd" clip-rule="evenodd" d="M34.3328 55.9895C34.4186 55.8818 34.5407 55.7864 34.5841 55.6638C34.9041 54.7662 35.2045 53.8621 35.5223 52.9641C35.5631 52.8494 35.6716 52.7588 35.7491 52.6572L36.2986 53.863C36.19 54.0171 36.0403 54.1559 35.9799 54.3275L34.9273 57.4181C34.884 57.542 34.736 57.6296 34.6371 57.7343L34.3328 55.9895Z" fill="#B6B598"/>
<path fill-rule="evenodd" clip-rule="evenodd" d="M34.637 57.7346C34.7363 57.6304 34.8839 57.5424 34.9272 57.4184L35.9798 54.3278C36.0398 54.1566 36.1899 54.0174 36.2985 53.8633L36.8305 54.3173C36.5735 54.5713 36.4307 54.8646 36.5166 55.2354L36.355 55.7643C36.2814 55.855 36.175 55.9338 36.1387 56.0375C35.7714 57.0896 35.4207 58.1474 35.0507 59.1995C35.0039 59.3331 34.8738 59.4377 34.7819 59.555C34.7342 58.9478 34.6856 58.3418 34.637 57.7346Z" fill="#C2C1A7"/>
<path fill-rule="evenodd" clip-rule="evenodd" d="M34.7822 59.5544C34.8738 59.4366 35.0038 59.332 35.0511 59.1989C35.421 58.1472 35.7717 57.0894 36.1391 56.0369C36.1754 55.9335 36.2814 55.8543 36.3554 55.7637L36.1325 58.1914C36.073 58.2602 35.9867 58.3201 35.9582 58.4003C35.7065 59.1069 35.4692 59.8188 35.2166 60.5255C35.1645 60.6713 35.0646 60.8 34.9867 60.9362C34.9175 60.8455 34.7936 60.758 34.7879 60.6634C34.7656 60.2952 34.7809 59.9243 34.7822 59.5544Z" fill="#CECDB7"/>
<path fill-rule="evenodd" clip-rule="evenodd" d="M34.9863 60.9361C35.0643 60.7995 35.1641 60.6708 35.2162 60.5254C35.4693 59.8192 35.7061 59.1073 35.9579 58.4002C35.9863 58.3201 36.073 58.2605 36.1321 58.1914L36.1374 59.785L35.6041 61.1528L34.9863 60.9361Z" fill="#DBDAC7"/>
<path fill-rule="evenodd" clip-rule="evenodd" d="M35.604 61.153L36.1373 59.7852L36.2472 61.4035L35.604 61.153Z" fill="#EBE9DC"/>
<path fill-rule="evenodd" clip-rule="evenodd" d="M36.5167 55.2355C36.4309 54.8647 36.5732 54.5709 36.8306 54.3174L36.9782 54.4181L36.5167 55.2355Z" fill="#CECDB7"/>
<path fill-rule="evenodd" clip-rule="evenodd" d="M35.1384 48.3507L35.1095 48.3458L35.0806 48.3502L35.1485 48.1055L35.1384 48.3507Z" fill="#4FAA41"/>
</g>
<defs>
<clipPath id="clip0_1_3461">
<rect width="70" height="70" fill="white"/>
</clipPath>
</defs>
</svg>
