<svg width="73" height="70" viewBox="0 0 73 70" fill="none" xmlns="http://www.w3.org/2000/svg">
<g clip-path="url(#clip0_1_3482)">
<path d="M71.6047 35C71.6047 53.7436 55.834 69 36.3023 69C16.7706 69 1 53.7436 1 35C1 16.2564 16.7706 1 36.3023 1C55.834 1 71.6047 16.2564 71.6047 35Z" fill="white" stroke="#DF234F" stroke-width="2"/>
<mask id="mask0_1_3482" style="mask-type:luminance" maskUnits="userSpaceOnUse" x="12" y="12" width="49" height="46">
<path d="M60.1581 12H12.4465V58H60.1581V12Z" fill="white"/>
</mask>
<g mask="url(#mask0_1_3482)">
<path d="M40.5516 12.1074C40.2161 12.1074 39.8807 12.1793 39.5825 12.2871C40.2161 12.6824 40.5516 13.2215 40.738 13.8324C40.738 13.9043 40.7753 13.9762 40.7753 14.048C40.7753 14.1199 40.8125 14.1918 40.8125 14.2637C40.8498 15.3058 40.5143 15.4496 40.2907 16.0605C39.9179 16.8512 40.0298 17.7137 40.4771 18.3965C40.5143 18.4683 40.5516 18.5762 40.6262 18.648C40.1416 15.6293 42.7508 15.198 43.2354 14.2637C43.2727 13.4371 42.5645 12.898 42.0053 12.5027C41.4462 12.1793 40.9989 12.1074 40.5516 12.1074ZM44.4655 12.7543C44.4282 13.0418 44.4655 12.9699 44.4282 13.1137C44.4282 13.2215 44.4282 13.3293 44.3909 13.4371C44.3536 13.5449 44.3536 13.6168 44.3164 13.7246C44.2791 13.8324 44.2418 13.9043 44.2045 14.0121C44.1673 14.084 44.13 14.1558 44.0927 14.2637C44.0554 14.2996 44.0182 14.3715 43.9809 14.4074C43.9436 14.4433 43.9436 14.4793 43.9063 14.5152C43.8318 14.5871 43.7945 14.6949 43.72 14.7668L43.4963 14.9824C43.4218 15.0543 43.3472 15.1262 43.2727 15.1621C43.0117 15.3418 42.7135 15.4855 42.4526 15.6652C42.3781 15.7371 42.2663 15.773 42.1917 15.8449C42.1172 15.9168 42.0426 15.9527 41.9681 16.0246L41.7444 16.2402C41.6699 16.3121 41.5953 16.384 41.558 16.4918C41.4835 16.5637 41.4462 16.6715 41.3717 16.7433C41.3344 16.8512 41.2971 16.923 41.2226 17.0308C41.1853 17.1387 41.148 17.2105 41.1107 17.3183C41.0735 17.4262 41.0362 17.534 41.0362 17.6058C41.0362 17.6418 41.0362 17.7137 40.9989 17.7496C40.9989 17.7855 40.9989 17.8574 40.9616 17.8933V18.3965C40.9616 18.5043 40.9616 18.5762 40.9989 18.684C40.9989 18.7918 41.0362 18.8637 41.0735 18.9715C41.1107 19.0793 41.148 19.1512 41.1853 19.259C41.2226 19.3308 41.2598 19.3668 41.2598 19.4387L38.427 18.3965C37.9424 18.2527 37.4951 18.1449 37.0105 18.0371C36.7496 17.9652 36.4887 17.9293 36.2277 17.8574C35.4823 17.7137 34.7368 17.6058 33.9913 17.534H33.9167C33.1712 17.4621 32.463 17.4262 31.7175 17.4262C31.1584 17.4262 30.6365 17.4621 30.1147 17.498C29.3692 17.534 28.6237 17.6418 27.8782 17.7496L27.3191 17.8574C26.9463 17.9293 26.5736 18.0012 26.2009 18.109C26.0145 18.1449 25.8281 18.2168 25.6417 18.2527C25.4554 18.3246 25.269 18.3965 25.1199 18.4683C24.9708 18.5402 24.859 18.5762 24.7099 18.648C24.6726 18.648 24.6726 18.648 24.6353 18.684C24.5235 18.7558 24.4117 18.7918 24.2998 18.8637C24.2626 18.8637 24.2253 18.8996 24.2253 18.8996C24.0762 18.9715 23.9644 19.0433 23.8525 19.0793C23.778 19.1152 23.6662 19.1512 23.5916 19.1871C23.5543 19.223 23.5171 19.223 23.4798 19.259C23.368 19.3308 23.2562 19.3668 23.1443 19.4387C23.0325 19.5105 22.9207 19.5465 22.8461 19.6183C22.7716 19.6902 22.6598 19.7262 22.5852 19.798C22.5852 19.798 22.5479 19.798 22.5479 19.834C22.4734 19.8699 22.3988 19.9418 22.3243 20.0137L22.287 20.0496C22.2125 20.0855 22.1752 20.1574 22.1006 20.1933C22.0634 20.1933 22.0634 20.2293 22.0261 20.2293C21.9515 20.2652 21.9143 20.3371 21.8397 20.373C21.8397 20.409 21.8024 20.409 21.8024 20.409L21.5788 20.6246L21.5415 20.6605L21.3179 20.8762C21.3179 20.8762 21.3179 20.9121 21.2806 20.9121L21.0942 21.0918C21.0569 21.1277 21.0197 21.1277 21.0197 21.1637L20.796 21.3793C20.796 21.4152 20.7587 21.4152 20.7587 21.4512L20.4605 21.7387L20.4233 21.7746C20.2369 21.9902 20.0133 22.1699 19.7896 22.3496C19.566 22.5293 19.3423 22.709 19.0814 22.8887C18.8205 23.0683 18.5968 23.2121 18.3359 23.3558C18.075 23.4996 17.814 23.6074 17.5531 23.7152C17.2922 23.823 17.0313 23.9308 16.7704 24.0027C16.2485 24.1105 15.7267 24.3262 15.2794 24.3621C15.2794 24.1824 15.1675 24.2183 15.0557 24.2183C14.9439 24.2543 14.8321 24.2543 14.7575 24.2902C14.6457 24.3262 14.5711 24.3621 14.4593 24.398C14.3475 24.434 14.2729 24.4699 14.1611 24.5418C14.0866 24.6137 13.9747 24.6496 13.9002 24.7215C13.8256 24.7933 13.7138 24.8652 13.6393 24.9371C13.5647 25.009 13.4529 25.0808 13.3784 25.1527C13.3038 25.2246 13.2293 25.2965 13.1547 25.4043C13.0802 25.5121 13.0056 25.584 12.9683 25.6918C12.8938 25.7637 12.8565 25.8715 12.782 25.9793C12.7447 26.0871 12.6701 26.1949 12.6329 26.3027L12.521 26.6262C12.4838 26.734 12.4838 26.8058 12.4465 26.9137V26.9496C12.4092 27.0574 12.4092 27.2012 12.4092 27.273C12.4465 27.2371 12.4465 27.309 12.4465 27.3808V27.5246C12.4465 27.5965 12.4838 27.6683 12.4838 27.7402C12.521 27.8121 12.521 27.884 12.5583 27.9558C12.5956 28.0277 12.6329 28.0996 12.7074 28.1715C12.7447 28.2433 12.8192 28.3152 12.8565 28.3871C12.9311 28.459 13.0056 28.5308 13.0802 28.5668C13.1547 28.6387 13.2293 28.7105 13.3038 28.7465C13.602 28.998 13.6766 29.0699 14.0493 29.2855C14.1238 29.3215 14.1611 29.3574 14.2357 29.3933H14.2729V29.4652C14.2729 29.573 14.3102 29.6449 14.3475 29.7527C14.3848 29.8605 14.422 29.9683 14.4593 30.0402L14.5711 30.2558C14.5711 30.2918 14.6084 30.2918 14.6084 30.3277C14.6457 30.4355 14.7202 30.5074 14.7575 30.5793C14.8321 30.6512 14.8693 30.759 14.9439 30.8308L15.1675 31.0465L15.3912 31.2621H15.4285C15.503 31.334 15.5776 31.3699 15.6521 31.4418C15.7267 31.5137 15.8385 31.5496 15.913 31.5855C15.9876 31.6215 16.0994 31.6933 16.2112 31.7293C16.2858 31.7652 16.3603 31.8012 16.4722 31.8012C16.4722 31.8012 16.5094 31.8012 16.5094 31.8371C16.5467 31.8371 16.6213 31.873 16.6585 31.873C16.6213 32.5199 16.6213 33.1308 16.6958 33.3465C16.8076 33.598 17.3667 32.8433 17.8886 32.0168C17.814 32.8433 17.7768 33.8137 17.8886 34.1012C18.0377 34.3887 18.7459 33.4543 19.4169 32.448C28.1391 30.5074 36.1159 36.3293 36.9732 44.559C36.8241 43.2652 35.1841 42.5465 34.4013 42.7262C34.0285 43.5887 33.3949 44.7387 32.3885 45.4215C32.463 44.6308 32.4257 43.8402 32.2766 43.0496C32.0157 44.1277 31.4939 45.1699 30.7484 46.0324C29.5928 46.1043 28.4001 45.5652 27.8037 44.7387C27.7664 44.7027 27.7291 44.6308 27.6918 44.5949C27.6546 44.523 27.6173 44.4152 27.58 44.3433C27.5427 44.2715 27.5055 44.1637 27.5055 44.0918V43.8402V43.6605C27.5055 43.5887 27.5427 43.4808 27.58 43.409C27.6173 43.3371 27.6173 43.2293 27.6546 43.1574C27.6918 43.0855 27.7291 42.9777 27.8037 42.9058C28.0273 42.3308 28.0273 41.8637 27.6173 41.6121L27.3936 41.5043C27.3564 41.5043 27.2818 41.4683 27.2445 41.4683C27.2073 41.4683 27.17 41.4324 27.1327 41.4324C27.0582 41.3965 26.9463 41.3965 26.8718 41.3605C26.7972 41.3246 26.6854 41.3246 26.6109 41.3246C26.5363 41.3246 26.4245 41.2887 26.35 41.2887H26.1636C26.0518 41.2887 25.9772 41.2887 25.9027 41.3246C25.8281 41.3246 25.7163 41.3605 25.6417 41.3605C25.5672 41.3965 25.4554 41.3965 25.3808 41.4324C25.3063 41.4683 25.2317 41.5043 25.1199 41.5402L24.8962 41.648C22.0261 43.4449 23.7407 47.6855 25.679 48.9074C24.9335 49.0512 24.188 49.1949 23.9644 49.3387L23.9271 49.3746C24.4489 49.698 25.0081 49.9496 25.6045 50.1652C26.3872 50.4168 27.2445 50.6324 27.6173 50.7402C28.6237 50.9558 29.6674 51.0277 30.7111 50.9558C36.1532 50.5965 40.6262 46.5715 41.4462 41.3246C41.4835 41.4324 41.4835 41.5402 41.5208 41.648C41.558 41.8637 41.5953 42.0793 41.6326 42.3308C41.6699 42.4387 41.6699 42.5465 41.6699 42.6543V42.6902C41.6699 42.798 41.7071 42.9058 41.7071 43.0137C41.7071 43.1574 41.7444 43.2652 41.7444 43.409V44.9183C41.7444 45.0262 41.7071 45.098 41.7071 45.2058V45.3137C41.7071 45.4215 41.6699 45.5293 41.6699 45.673C41.6326 45.7808 41.6326 45.8887 41.5953 45.9965V46.0324C41.558 46.1402 41.558 46.248 41.5208 46.3558V46.3918C41.4835 46.4996 41.4835 46.6074 41.4462 46.7152V46.7512L41.3344 47.0746V47.1105C41.2971 47.2183 41.2598 47.3621 41.2226 47.4699C41.1853 47.5777 41.148 47.6855 41.0735 47.8293C41.0362 47.9371 40.9989 48.0808 40.9244 48.1887C40.8871 48.2965 40.8125 48.4043 40.7753 48.548C40.738 48.6558 40.6634 48.7637 40.6262 48.8715C40.6262 48.9074 40.5889 48.9433 40.5889 48.9433C40.5889 48.9433 40.5889 48.9793 40.5516 48.9793C39.7688 50.5246 38.5761 51.8902 37.0851 52.9683C36.9732 53.0402 36.8987 53.1121 36.7869 53.184C36.7496 53.2199 36.7123 53.2199 36.7123 53.2558C36.6378 53.3277 36.5259 53.3637 36.4514 53.4355L36.4887 53.5074C36.675 53.4715 36.8241 53.4715 37.0105 53.4355C37.346 53.3996 37.6442 53.3277 37.9797 53.2558C38.0542 53.2558 38.166 53.2199 38.2406 53.184C38.3151 53.184 38.3524 53.148 38.427 53.148C38.5015 53.148 38.6133 53.1121 38.6879 53.1121C38.7624 53.0762 38.837 53.0762 38.9115 53.0402C40.1416 52.7527 41.3344 52.3574 42.4899 51.8902C40.5143 54.4777 37.9051 56.5621 34.8486 57.9277C36.265 57.8199 37.6815 57.6043 39.0606 57.209C44.0182 55.8074 48.1929 52.573 50.6903 48.2246C50.1685 50.9558 49.0502 53.5793 47.3729 55.8793C48.5657 55.1246 49.6466 54.2262 50.6531 53.2558C53.4114 50.4887 55.2379 46.9308 55.8342 43.1574C56.2443 45.0262 56.3934 46.9668 56.207 48.8715C65.1157 36.9043 56.9525 24.5058 53.5232 21.2355C53.5232 21.1996 53.4859 21.1996 53.4859 21.1637C53.4859 21.3074 53.4859 21.4512 53.4487 21.5949C53.4114 21.8824 53.3741 22.134 53.3368 22.3855C53.2623 22.6371 53.1877 22.9246 53.1132 23.1762C53.0386 23.4277 52.9268 23.6793 52.815 23.9308C52.7032 24.1824 52.5913 24.434 52.4422 24.6496C52.2931 24.8652 52.1441 25.1168 51.9949 25.3324C51.8459 25.548 51.6595 25.7637 51.4731 25.9793C51.2867 26.1949 51.1004 26.3746 50.8767 26.5902C50.7649 26.698 50.6531 26.8058 50.504 26.8777C50.3921 26.9496 50.3176 27.0215 50.2058 27.1293C49.9821 27.309 49.7585 27.4527 49.4975 27.5965C49.2739 27.7402 49.013 27.884 48.7521 27.9918L47.9693 28.3152C47.7084 28.423 47.4474 28.4949 47.1865 28.5668C46.9256 28.6387 46.6274 28.7105 46.3665 28.7465C46.0683 28.7824 45.8074 28.8183 45.5464 28.8543C45.3601 28.8543 45.1364 28.8902 44.95 28.8902C44.6518 28.8902 44.3909 28.8543 44.13 28.8543C43.8318 28.8183 43.5709 28.7824 43.3099 28.7465C43.0117 28.7105 42.7508 28.6387 42.4899 28.5308C42.7508 28.4949 43.049 28.4949 43.3099 28.423C43.6081 28.3871 43.8691 28.3152 44.13 28.2433C44.3909 28.1715 44.6891 28.0996 44.9128 27.9918L45.6955 27.6683C45.9564 27.5605 46.1801 27.4168 46.441 27.273C46.6647 27.1293 46.9256 26.9496 47.1492 26.8058C47.3729 26.6262 47.5965 26.4465 47.7829 26.2668C48.0066 26.0871 48.1929 25.8715 48.3793 25.6918C48.5657 25.4762 48.7521 25.2605 48.9011 25.0449C48.9384 25.009 48.9384 24.973 48.9757 24.9371C49.0875 24.7574 49.2366 24.5418 49.3484 24.3621C49.4975 24.1105 49.6094 23.8949 49.7212 23.6433C49.833 23.3918 49.9448 23.1402 50.0194 22.8887L50.243 22.134C50.2803 21.8465 50.3549 21.5949 50.3549 21.3433C50.3921 21.0558 50.3921 20.8043 50.3921 20.5527C50.3921 20.373 50.3921 20.1574 50.3549 19.9777C50.3176 19.6902 50.2803 19.4387 50.243 19.1871C50.2058 18.8996 50.1312 18.648 50.0567 18.3965C49.9821 18.1449 49.8703 17.8933 49.7957 17.6418C49.6839 17.3902 49.5721 17.1387 49.4603 16.923C49.3112 16.6715 49.1993 16.4558 49.0502 16.2043C48.9011 15.9887 48.7148 15.773 48.5657 15.5574C48.3793 15.3418 48.1929 15.1621 48.0066 14.9465C47.8947 14.8387 47.7829 14.7308 47.6711 14.659C47.112 14.2277 46.5528 13.8683 45.9564 13.509C45.8819 13.473 45.8073 13.4371 45.6955 13.4012C45.211 13.0058 44.8382 12.898 44.4655 12.7543Z" fill="#DF234F"/>
</g>
</g>
<defs>
<clipPath id="clip0_1_3482">
<rect width="73" height="70" fill="white"/>
</clipPath>
</defs>
</svg>
