<svg width="70" height="70" viewBox="0 0 70 70" fill="none" xmlns="http://www.w3.org/2000/svg">
<g clip-path="url(#clip0_1_3499)">
<path d="M35 69C53.7777 69 69 53.7777 69 35C69 16.2223 53.7777 1 35 1C16.2223 1 1 16.2223 1 35C1 53.7777 16.2223 69 35 69Z" fill="white" stroke="#6181B6" stroke-width="2"/>
<path d="M34.9999 20.4873C19.1843 20.4873 6.36206 26.9851 6.36206 35.0002C6.36206 43.0154 19.1843 49.5132 34.9999 49.5132C50.8155 49.5132 63.6377 43.0154 63.6377 35.0002C63.6377 26.9851 50.8155 20.4873 34.9999 20.4873ZM27.5482 37.8277C26.8647 38.4671 26.1058 38.731 25.2701 39.0029C24.4343 39.2752 23.3707 39.219 22.0774 39.219H19.1463L18.334 43.9065H14.9116L17.9655 27.969H24.5468C26.5268 27.969 27.971 28.5385 28.879 29.5777C29.7869 30.6169 30.0597 32.0921 29.6979 33.9544C29.5483 34.7218 29.2966 35.4352 28.9413 36.0709C28.5731 36.7267 28.1028 37.3197 27.5482 37.8277ZM37.5377 39.219L38.8882 32.4596C39.0419 31.6684 38.9857 31.0805 38.719 30.7932C38.4518 30.5054 37.8836 30.3127 37.0151 30.3127H34.301L32.5521 39.219H29.1565L32.2104 23.7502H35.606L34.7941 27.969H37.819C39.7226 27.969 41.0351 28.351 41.7574 29.0148C42.4797 29.6785 42.6963 30.5879 42.4076 32.0748L40.9868 39.219H37.5377ZM56.4091 33.9793C56.2601 34.7466 56.0079 35.4479 55.653 36.083C55.2977 36.7191 54.8336 37.3009 54.2604 37.8277C53.5769 38.4671 52.8175 38.731 51.9822 39.0029C51.1469 39.2752 50.0824 39.219 48.7891 39.219H45.858L45.0461 43.9065H41.6238L44.6772 27.969H51.259C53.239 27.969 54.6832 28.5385 55.5907 29.5777C56.4977 30.6169 56.771 32.1174 56.4091 33.9793ZM49.9619 30.3127H47.6177L46.3394 36.8752H48.4216C49.8007 36.8752 50.8291 36.7393 51.5041 36.219C52.1801 35.6996 52.6352 34.8934 52.8719 33.6779C53.0988 32.5102 52.9957 31.5994 52.5626 31.1194C52.129 30.6394 51.2622 30.3127 49.9619 30.3127ZM23.2502 30.3127H20.9055L19.6272 36.8752H21.709C23.0885 36.8752 24.1165 36.7393 24.7919 36.219C25.4674 35.6996 25.923 34.8934 26.1593 33.6779C26.3861 32.5102 26.283 31.5994 25.8499 31.1194C25.4168 30.6394 24.5505 30.3127 23.2502 30.3127Z" fill="#6181B6"/>
</g>
<defs>
<clipPath id="clip0_1_3499">
<rect width="70" height="70" fill="white"/>
</clipPath>
</defs>
</svg>
