<svg width="70" height="70" viewBox="0 0 70 70" fill="none" xmlns="http://www.w3.org/2000/svg">
<g clip-path="url(#clip0_1_3530)">
<path d="M54.1943 18.8218C49.2838 12.9739 39.5842 11.2407 32.5737 14.958L20.2574 21.4893C18.5913 22.3587 17.1616 23.5075 16.0595 24.8629C14.9575 26.2183 14.2078 27.7501 13.8582 29.3602C13.7024 30.0827 13.6231 30.8197 13.6217 31.5588C13.6292 33.5632 14.2198 35.5364 15.3428 37.3098C14.2899 38.6408 13.5711 40.1354 13.2301 41.7036C12.8808 43.3427 12.9298 45.0416 13.3728 46.6578C13.8162 48.2847 14.6454 49.8217 15.812 51.1788C20.7222 57.0263 30.4435 58.7595 37.4323 55.0426L49.7358 48.5109C51.401 47.6406 52.8289 46.4904 53.9282 45.1336C55.0272 43.7768 55.7731 42.2437 56.1179 40.6328C56.2761 39.9086 56.3555 39.174 56.3544 38.4376C56.3513 36.437 55.7683 34.467 54.6546 32.6939C55.7071 31.3639 56.4259 29.8707 56.7676 28.3039C56.9202 27.5789 56.9979 26.8446 57 26.1087C57.0007 23.4979 56.0196 20.9524 54.1943 18.8287V18.8218Z" fill="#FF3E00"/>
<path d="M31.3699 51.7292C30.561 51.9026 29.736 51.9902 28.9087 51.9905C27.3292 51.9908 25.773 51.6725 24.3736 51.0624C22.9745 50.4525 21.7738 49.5694 20.8745 48.4887C19.7766 47.2113 19.1867 45.6799 19.1877 44.1093C19.1884 43.6666 19.2345 43.225 19.3252 42.7917C19.3991 42.4656 19.4986 42.1459 19.6226 41.8354L19.855 41.2483L20.483 41.6456C21.9415 42.5363 23.5713 43.2145 25.3024 43.6511L25.7589 43.7656L25.7159 44.1451V44.342C25.7149 44.8167 25.8926 45.2805 26.2236 45.6668C26.4911 45.9962 26.8513 46.2663 27.2728 46.4533C27.7044 46.6427 28.1706 46.7407 28.6419 46.7411C28.8908 46.7419 29.1389 46.7155 29.382 46.6623C29.6458 46.6049 29.9006 46.5122 30.1397 46.3867L42.4425 39.8231C42.8114 39.6285 43.1152 39.3593 43.3253 39.0407C43.535 38.722 43.6443 38.3642 43.6429 38.0005C43.6395 37.5258 43.4573 37.0638 43.1221 36.6791C42.8506 36.3539 42.4882 36.0885 42.0665 35.905C41.6346 35.7197 41.1693 35.6249 40.6994 35.6265C40.4505 35.6258 40.2023 35.6523 39.9593 35.7056C39.6967 35.7617 39.4433 35.8544 39.2064 35.981L34.516 38.4732C33.7266 38.8867 32.8859 39.1937 32.0159 39.3862C31.2115 39.5587 30.3848 39.6467 29.5543 39.6474C27.9751 39.6474 26.4196 39.3291 25.0205 38.72C23.6215 38.1108 22.4204 37.2288 21.5201 36.1494C20.4235 34.8713 19.8337 33.3403 19.8333 31.77C19.834 31.3283 19.8801 30.8876 19.9708 30.4524C20.1815 29.4844 20.6312 28.5635 21.2922 27.7481C21.9529 26.9324 22.8102 26.2401 23.8095 25.7152L36.1254 19.1873C36.8982 18.7783 37.741 18.4689 38.6255 18.2705C39.4299 18.099 40.2566 18.0127 41.0868 18.0127C42.6697 18.0093 44.23 18.3255 45.6339 18.9343C47.0378 19.5428 48.243 20.4262 49.1467 21.5076C50.2367 22.7888 50.8191 24.3209 50.8122 25.8905C50.8114 26.3345 50.7652 26.7772 50.6743 27.2119C50.6006 27.5378 50.5013 27.8575 50.3773 28.1678L50.145 28.755L49.5169 28.372C48.0594 27.48 46.4294 26.8018 44.6975 26.3666L44.241 26.2487L44.284 25.8688V25.6722C44.284 25.1961 44.1066 24.732 43.7763 24.3436C43.5051 24.0187 43.1438 23.7537 42.7223 23.5702C42.2913 23.3848 41.8269 23.2896 41.3576 23.2907C41.1113 23.2951 40.8661 23.3264 40.6265 23.3838C40.3622 23.439 40.1071 23.5318 39.8692 23.6595L27.5533 30.1874C27.2611 30.3389 27.0028 30.5483 26.7939 30.8027C26.5992 31.0402 26.4628 31.32 26.3959 31.6198C26.3656 31.7443 26.3468 31.8713 26.3398 31.9993C26.3395 32.473 26.5169 32.935 26.8476 33.3207C27.1184 33.6455 27.4801 33.9109 27.9012 34.0941C28.3322 34.2795 28.7966 34.3745 29.2658 34.3732C29.5147 34.374 29.7629 34.3475 30.0059 34.2942C30.2702 34.2385 30.5252 34.1458 30.7636 34.0188L35.4627 31.5122C36.2517 31.0979 37.0925 30.7909 37.9628 30.5992C38.7717 30.426 39.5967 30.3384 40.424 30.3379C42.0039 30.3379 43.5601 30.6559 44.9598 31.265C46.3596 31.8742 47.5617 32.7566 48.4626 33.8363C49.5592 35.114 50.1491 36.6451 50.1494 38.2157C50.1505 38.6622 50.103 39.1081 50.0075 39.5474C49.7981 40.5157 49.3485 41.437 48.6878 42.2527C48.0268 43.0681 47.1691 43.7601 46.1688 44.2846L33.8745 50.8125C33.0842 51.2279 32.2417 51.5363 31.3699 51.7292Z" fill="white"/>
<path d="M54.1943 18.8218C49.2838 12.9739 39.5842 11.2407 32.5737 14.958L20.2574 21.4893C18.5913 22.3587 17.1616 23.5075 16.0595 24.8629C14.9575 26.2183 14.2078 27.7501 13.8582 29.3602C13.7024 30.0827 13.6231 30.8197 13.6217 31.5588C13.6292 33.5632 14.2198 35.5364 15.3428 37.3098C14.2899 38.6408 13.5711 40.1354 13.2301 41.7036C12.8808 43.3427 12.9298 45.0416 13.3728 46.6578C13.8162 48.2847 14.6454 49.8217 15.812 51.1788C20.7222 57.0263 30.4435 58.7595 37.4323 55.0426L49.7358 48.5109C51.401 47.6406 52.8289 46.4904 53.9282 45.1336C55.0272 43.7768 55.7731 42.2437 56.1179 40.6328C56.2761 39.9086 56.3555 39.174 56.3544 38.4376C56.3513 36.437 55.7683 34.467 54.6546 32.6939C55.7071 31.3639 56.4259 29.8707 56.7676 28.3039C56.9202 27.5789 56.9979 26.8446 57 26.1087C57.0007 23.4979 56.0196 20.9524 54.1943 18.8287V18.8218Z" fill="#FF3E00"/>
<path d="M31.3699 51.7292C30.561 51.9026 29.736 51.9901 28.9086 51.9904C27.3291 51.9908 25.773 51.6725 24.3735 51.0623C22.9745 50.4525 21.7737 49.5694 20.8745 48.4886C19.7766 47.2113 19.1867 45.6798 19.1877 44.1092C19.1884 43.6665 19.2344 43.225 19.3252 42.7916C19.3991 42.4656 19.4985 42.1458 19.6226 41.8353L19.8549 41.2482L20.483 41.6456C21.9415 42.5362 23.5712 43.2145 25.3024 43.651L25.7589 43.7655L25.7159 44.145V44.342C25.7149 44.8167 25.8926 45.2804 26.2236 45.6668C26.491 45.9961 26.8513 46.2663 27.2727 46.4533C27.7044 46.6426 28.1705 46.7406 28.6419 46.741C28.8907 46.7418 29.1389 46.7154 29.382 46.6623C29.6458 46.6048 29.9006 46.5121 30.1396 46.3866L42.4425 39.823C42.8113 39.6284 43.1152 39.3593 43.3252 39.0406C43.5349 38.722 43.6442 38.3641 43.6429 38.0004C43.6394 37.5257 43.4572 37.0637 43.1221 36.6791C42.8505 36.3539 42.4882 36.0885 42.0664 35.9049C41.6346 35.7196 41.1693 35.6248 40.6993 35.6265C40.4505 35.6258 40.2023 35.6523 39.9592 35.7056C39.6966 35.7616 39.4432 35.8543 39.2064 35.9809L34.5159 38.4731C33.7266 38.8866 32.8859 39.1936 32.0158 39.3861C31.2114 39.5587 30.3847 39.6467 29.5542 39.6473C27.975 39.6473 26.4195 39.329 25.0205 38.7199C23.6214 38.1108 22.4203 37.2287 21.5201 36.1493C20.4235 34.8713 19.8336 33.3402 19.8333 31.7699C19.834 31.3282 19.88 30.8875 19.9708 30.4523C20.1815 29.4843 20.6311 28.5634 21.2922 27.7481C21.9528 26.9323 22.8102 26.24 23.8094 25.7151L36.1254 19.1873C36.8981 18.7782 37.741 18.4688 38.6255 18.2705C39.4298 18.0989 40.2566 18.0127 41.0867 18.0127C42.6697 18.0092 44.23 18.3255 45.6339 18.9343C47.0378 19.5427 48.2429 20.4261 49.1467 21.5076C50.2367 22.7887 50.819 24.3208 50.8121 25.8904C50.8114 26.3344 50.7652 26.7772 50.6743 27.2118C50.6005 27.5378 50.5012 27.8574 50.3773 28.1678L50.1449 28.7549L49.5169 28.372C48.0594 27.4799 46.4293 26.8017 44.6975 26.3665L44.241 26.2486L44.284 25.8688V25.6721C44.284 25.196 44.1066 24.732 43.7762 24.3435C43.505 24.0187 43.1437 23.7537 42.7223 23.5701C42.2913 23.3847 41.8268 23.2896 41.3576 23.2906C41.1112 23.2951 40.8661 23.3263 40.6264 23.3838C40.3621 23.4389 40.1071 23.5318 39.8692 23.6595L27.5532 30.1873C27.2611 30.3389 27.0027 30.5482 26.7939 30.8026C26.5991 31.0401 26.4628 31.32 26.3958 31.6197C26.3655 31.7442 26.3468 31.8713 26.3398 31.9992C26.3395 32.4729 26.5168 32.9349 26.8475 33.3206C27.1184 33.6455 27.48 33.9108 27.9011 34.094C28.3321 34.2794 28.7966 34.3744 29.2658 34.3732C29.5147 34.3739 29.7628 34.3474 30.0059 34.2941C30.2701 34.2384 30.5252 34.1457 30.7635 34.0188L35.4626 31.5121C36.2516 31.0979 37.0924 30.7908 37.9627 30.5991C38.7717 30.4259 39.5967 30.3384 40.424 30.3379C42.0039 30.3379 43.56 30.6558 44.9598 31.265C46.3595 31.8741 47.5616 32.7565 48.4626 33.8362C49.5592 35.114 50.149 36.645 50.1494 38.2156C50.1504 38.6622 50.103 39.108 50.0074 39.5473C49.7981 40.5157 49.3484 41.4369 48.6878 42.2526C48.0267 43.068 47.1691 43.76 46.1687 44.2846L33.8745 50.8124C33.0842 51.2279 32.2416 51.5362 31.3699 51.7292Z" fill="white"/>
<path d="M35 69C53.7777 69 69 53.7777 69 35C69 16.2223 53.7777 1 35 1C16.2223 1 1 16.2223 1 35C1 53.7777 16.2223 69 35 69Z" stroke="#FF3E00" stroke-width="2"/>
</g>
<defs>
<clipPath id="clip0_1_3530">
<rect width="70" height="70" fill="white"/>
</clipPath>
</defs>
</svg>
