<svg width="70" height="70" viewBox="0 0 70 70" fill="none" xmlns="http://www.w3.org/2000/svg">
<g clip-path="url(#clip0_1_3561)">
<path d="M35 69C53.7777 69 69 53.7777 69 35C69 16.2223 53.7777 1 35 1C16.2223 1 1 16.2223 1 35C1 53.7777 16.2223 69 35 69Z" fill="white" stroke="#FDBD39" stroke-width="2"/>
<mask id="mask0_1_3561" style="mask-type:luminance" maskUnits="userSpaceOnUse" x="10" y="15" width="50" height="40">
<path d="M60 15.0166H10V54.9825H60V15.0166Z" fill="white"/>
</mask>
<g mask="url(#mask0_1_3561)">
<path d="M17.7073 42.5723L15.0918 43.5279L14.9526 51.3079L24.0062 48.0006C20.8983 46.9598 18.6318 45.1255 17.7073 42.5723Z" fill="#FDBD39"/>
<path d="M19.0764 34.3428L10 37.6584L15.0918 43.5293L17.7073 42.5737C16.7849 40.0288 17.3542 37.1557 19.0764 34.3428Z" fill="#F69833"/>
<path d="M34.3477 23.1151C22.7908 27.3364 15.339 36.0492 17.7073 42.5724L59.5575 27.2845C57.1892 20.7613 45.9045 18.8937 34.3477 23.1151Z" fill="#FECF33"/>
<path d="M42.915 46.7435C54.4719 42.5221 61.9361 33.8487 59.5554 27.2861L17.7051 42.5719C20.0859 49.1367 31.3581 50.9648 42.915 46.7435Z" fill="#EE6723"/>
<path d="M59.5554 27.2842L17.7073 42.5722C18.5259 44.8324 21.6524 45.9459 26.0358 45.9459C30.3112 45.9459 35.7832 44.8885 41.4879 42.8048C53.0447 38.5835 61.1738 31.7466 59.5554 27.2842Z" fill="#F69833"/>
<path d="M51.2268 23.9121C46.9535 23.9121 41.4794 24.9695 35.7748 27.0532C24.2179 31.2746 16.0889 38.1094 17.7072 42.5717L59.5574 27.2838C58.7368 25.0235 55.6123 23.9121 51.2268 23.9121Z" fill="#FDBD39"/>
<path d="M48.9146 51.7215C47.6827 51.7215 45.867 50.61 43.5154 48.4163C40.7337 45.8215 37.549 42.0198 34.5429 37.7133C31.5389 33.4067 29.0709 29.1022 27.5918 25.5893C25.9818 21.7626 25.7512 19.411 26.9083 18.5966C27.1763 18.4138 27.4942 18.3203 27.8182 18.3286C28.7593 18.3286 30.5958 19.0287 33.9882 22.3692L34.063 22.4419L34.0526 22.5458C34.0298 22.7868 34.009 23.0278 33.9903 23.2667L33.9529 23.7383L33.6205 23.4038C29.9642 19.7205 28.3563 19.3237 27.8328 19.3237C27.6832 19.3237 27.5648 19.3528 27.4796 19.413C26.9769 19.7662 26.9436 21.4946 28.5059 25.2029C29.958 28.6514 32.3907 32.8915 35.3552 37.142C38.3218 41.3945 41.4587 45.138 44.1926 47.6871C47.1384 50.4355 48.4659 50.7326 48.9001 50.7326C49.0497 50.7326 49.1701 50.7014 49.2615 50.637C49.7913 50.2652 49.7913 48.4142 48.0504 44.4213L47.9694 44.2385L48.1439 44.143C48.3184 44.0474 48.4887 43.9539 48.6466 43.8625L48.8564 43.7441L48.9541 43.9643C50.1881 46.7938 51.3431 50.3898 49.8287 51.4535C49.5607 51.6363 49.2408 51.7298 48.9146 51.7215Z" fill="#EE6723"/>
<path d="M43.1955 46.6229L43.1789 46.839C42.886 50.4538 42.1173 54.7998 40.1105 54.9764C40.069 54.9805 40.0274 54.9805 39.988 54.9805C38.6252 54.9805 37.3351 53.0277 36.1572 49.1782C35.0395 45.5344 34.1732 40.6441 33.7183 35.4068C33.2612 30.1696 33.2675 25.2024 33.737 21.4194C34.248 17.2977 35.2203 15.1455 36.6288 15.0208C36.6703 15.0167 36.7139 15.0146 36.7555 15.0146C37.7443 15.0146 39.2339 16.1343 40.7587 21.3487L39.7636 21.5399C39.2546 19.799 38.7 18.3821 38.1494 17.4057C37.6405 16.5062 37.144 16.0097 36.7555 16.0097C36.743 16.0097 36.7306 16.0097 36.716 16.0118C36.1052 16.0658 35.2161 17.5449 34.7217 21.5419C34.2605 25.2564 34.2542 30.1509 34.7051 35.3196C35.1559 40.4903 36.0076 45.3079 37.1045 48.8853C37.5948 50.487 38.1328 51.8083 38.6626 52.7036C39.1487 53.5305 39.6203 53.9854 39.988 53.9854C40.0004 53.9854 40.0129 53.9855 40.0254 53.9833C40.6091 53.9335 41.7102 52.3921 42.1734 46.972L43.1955 46.6229Z" fill="#EE6723"/>
</g>
</g>
<defs>
<clipPath id="clip0_1_3561">
<rect width="70" height="70" fill="white"/>
</clipPath>
</defs>
</svg>
