<svg width="18" height="18" viewBox="0 0 18 18" fill="none" xmlns="http://www.w3.org/2000/svg">
<path d="M9.00043 12.2474C7.20793 12.2474 5.75293 10.7924 5.75293 8.99994C5.75293 7.20744 7.20793 5.75244 9.00043 5.75244C10.7929 5.75244 12.2479 7.20744 12.2479 8.99994C12.2479 10.7924 10.7929 12.2474 9.00043 12.2474ZM9.00043 6.87744C7.83043 6.87744 6.87793 7.82994 6.87793 8.99994C6.87793 10.1699 7.83043 11.1224 9.00043 11.1224C10.1704 11.1224 11.1229 10.1699 11.1229 8.99994C11.1229 7.82994 10.1704 6.87744 9.00043 6.87744Z" fill="#545454"/>
<path d="M8.99957 15.7651C6.17957 15.7651 3.51707 14.1151 1.68707 11.2501C0.89207 10.0126 0.89207 7.99511 1.68707 6.75011C3.52457 3.88511 6.18707 2.23511 8.99957 2.23511C11.8121 2.23511 14.4746 3.88511 16.3046 6.75011C17.0996 7.98761 17.0996 10.0051 16.3046 11.2501C14.4746 14.1151 11.8121 15.7651 8.99957 15.7651ZM8.99957 3.36011C6.57707 3.36011 4.25957 4.81511 2.63957 7.35761C2.07707 8.23511 2.07707 9.76511 2.63957 10.6426C4.25957 13.1851 6.57707 14.6401 8.99957 14.6401C11.4221 14.6401 13.7396 13.1851 15.3596 10.6426C15.9221 9.76511 15.9221 8.23511 15.3596 7.35761C13.7396 4.81511 11.4221 3.36011 8.99957 3.36011Z" fill="#545454"/>
</svg>
