<svg width="18" height="18" viewBox="0 0 18 18" fill="none" xmlns="http://www.w3.org/2000/svg">
<path d="M9 16.2375C8.7675 16.2375 8.5425 16.2075 8.355 16.14C5.49 15.1575 0.9375 11.67 0.9375 6.51745C0.9375 3.89245 3.06 1.76245 5.67 1.76245C6.9375 1.76245 8.1225 2.25745 9 3.14245C9.8775 2.25745 11.0625 1.76245 12.33 1.76245C14.94 1.76245 17.0625 3.89995 17.0625 6.51745C17.0625 11.6775 12.51 15.1575 9.645 16.14C9.4575 16.2075 9.2325 16.2375 9 16.2375ZM5.67 2.88745C3.6825 2.88745 2.0625 4.51495 2.0625 6.51745C2.0625 11.64 6.99 14.49 8.7225 15.0825C8.8575 15.1275 9.15 15.1275 9.285 15.0825C11.01 14.49 15.945 11.6475 15.945 6.51745C15.945 4.51495 14.325 2.88745 12.3375 2.88745C11.1975 2.88745 10.14 3.41995 9.4575 4.34245C9.2475 4.62745 8.7675 4.62745 8.5575 4.34245C7.86 3.41245 6.81 2.88745 5.67 2.88745Z" fill="#545454"/>
</svg>
